<?xml version="1.0" encoding="UTF-8" standalone="no"?>
<!-- Created with Inkscape (http://www.inkscape.org/) -->

<svg
   xmlns:dc="http://purl.org/dc/elements/1.1/"
   xmlns:cc="http://creativecommons.org/ns#"
   xmlns:rdf="http://www.w3.org/1999/02/22-rdf-syntax-ns#"
   xmlns:svg="http://www.w3.org/2000/svg"
   xmlns="http://www.w3.org/2000/svg"
   xmlns:sodipodi="http://sodipodi.sourceforge.net/DTD/sodipodi-0.dtd"
   xmlns:inkscape="http://www.inkscape.org/namespaces/inkscape"
   width="51.683319mm"
   height="31.013855mm"
   viewBox="0 0 183.12987 109.89161"
   id="svg2"
   version="1.1"
   inkscape:version="0.91 r13725"
   sodipodi:docname="logo_harmonie.svg">
  <defs
     id="defs4">
    <pattern
       y="0"
       x="0"
       height="6"
       width="6"
       patternUnits="userSpaceOnUse"
       id="EMFhbasepattern" />
    <pattern
       y="0"
       x="0"
       height="6"
       width="6"
       patternUnits="userSpaceOnUse"
       id="EMFhbasepattern-7" />
  </defs>
  <sodipodi:namedview
     id="base"
     pagecolor="#ffffff"
     bordercolor="#666666"
     borderopacity="1.0"
     inkscape:pageopacity="0.0"
     inkscape:pageshadow="2"
     inkscape:zoom="3.959798"
     inkscape:cx="129.74549"
     inkscape:cy="57.998091"
     inkscape:document-units="px"
     inkscape:current-layer="layer1"
     showgrid="false"
     inkscape:window-width="1920"
     inkscape:window-height="1027"
     inkscape:window-x="-8"
     inkscape:window-y="-8"
     inkscape:window-maximized="1"
     fit-margin-top="1"
     fit-margin-left="1"
     fit-margin-right="1"
     fit-margin-bottom="1" />
  <metadata
     id="metadata7">
    <rdf:RDF>
      <cc:Work
         rdf:about="">
        <dc:format>image/svg+xml</dc:format>
        <dc:type
           rdf:resource="http://purl.org/dc/dcmitype/StillImage" />
        <dc:title></dc:title>
      </cc:Work>
    </rdf:RDF>
  </metadata>
  <g
     inkscape:label="Calque 1"
     inkscape:groupmode="layer"
     id="layer1"
     transform="translate(-288.17371,-477.41639)">
    <path
       style="fill:#bf0000;fill-opacity:1;fill-rule:nonzero;stroke:none"
       d="m 335.15022,545.0457 c 0.31802,3.135 -0.388,5.919 -2.118,8.35 -1.766,2.536 -4.308,4.298 -7.627,5.284 0.918,2.607 1.836,5.179 2.79,7.751 0.953,2.995 1.553,5.602 1.765,7.857 0.28201,2.677 -0.847,4.967 -3.389,6.835 -2.331,1.761 -5.155,2.642 -8.474,2.642 -3.177,0 -6.073,-0.74 -8.65,-2.255 -2.86,-1.656 -4.413,-3.77 -4.66,-6.412 -0.17699,-1.762 0.31702,-3.312 1.447,-4.721 1.271,-1.55 2.931,-2.325 4.943,-2.325 1.977,0 3.637,0.634 5.014,1.832 1.341,1.162 2.083,2.572 2.259,4.228 0.17699,1.726 -0.35298,3.065 -1.553,4.051 -1.236,0.951 -2.86,1.409 -4.908,1.339 1.801,1.55 3.954,2.325 6.426,2.325 3.071,0 5.437,-0.951 7.061,-2.889 1.448,-1.761 2.048,-3.946 1.801,-6.623 -0.17699,-1.832 -0.706,-3.981 -1.624,-6.483 -0.812,-2.149 -1.624,-4.298 -2.472,-6.412 -2.048,0.423 -4.342,0.669 -6.92,0.669 -6.108,0 -11.651,-2.325 -16.629,-6.94 -4.696,-4.369 -7.308,-9.195 -7.838,-14.445 -0.459,-4.686 1.13,-9.477 4.731,-14.41 2.083,-2.818 5.79,-6.729 11.192,-11.696 -2.012,-5.426 -3.107,-9.196 -3.319,-11.31 -0.423,-4.227 -0.31698,-7.645 0.28301,-10.252 0.77699,-3.347 2.542,-6.271 5.225,-8.843 0.88299,-0.81 1.65899,-1.233 2.33,-1.233 2.18899,0 4.37799,2.325 6.49699,6.94 1.69401,3.7 2.64801,6.835 2.89501,9.407 0.459,4.439 -0.071,8.667 -1.589,12.648 -1.55401,4.228 -4.02501,7.751 -7.45001,10.64 l 3.39,10.006 c 0.953,-0.176 1.836,-0.247 2.68301,-0.247 4.484,0 8.29699,1.55 11.50999,4.616 2.93,2.888 4.62501,6.235 4.97801,10.076 l 0,0 z m -16.559,-50.557 c -0.31702,-3.065 -1.836,-4.616 -4.589,-4.616 -2.507,0 -4.378,2.15 -5.543,6.483 -0.883,3.277 -1.201,6.342 -0.918,9.195 0.247,2.255 0.882,4.087 1.906,5.532 2.754,-1.868 5.014,-4.334 6.744,-7.399 1.871,-3.206 2.683,-6.271 2.4,-9.195 l 0,0 z m 11.969,52.142 c -0.671,-2.607 -2.118,-4.791 -4.272,-6.518 -2.295,-1.796 -4.978,-2.713 -8.085,-2.677 l 6.532,19.412 c 3.036,-2.607 4.978,-6.024 5.825,-10.217 l 0,0 z m -7.979,10.851 -6.532,-19.8 c -1.977,0.564 -3.566,1.551 -4.801,2.96 -1.307,1.444 -1.907,3.03 -1.73,4.791 0.176,1.832 0.953,3.277 2.259,4.334 1.483,1.021 2.966,2.043 4.449,3.03 l -0.6,0.35199 c -2.895,-0.529 -5.332,-1.832 -7.238,-3.84 -1.836,-1.938 -2.895,-4.193 -3.142,-6.694 -0.247,-2.431 0.459,-4.721 2.118,-6.941 1.589,-2.078 3.707,-3.629 6.32,-4.58 l -2.86,-8.984 c -9.78,7.504 -14.299,14.938 -13.557,22.337 0.35298,3.805 2.612,7.081 6.708,9.829 3.954,2.67801 8.226,4.017 12.78,4.017 2.225,0 4.167,-0.28201 5.826,-0.811 l 0,0 z"
       id="path3351"
       inkscape:connector-curvature="0" />
    <path
       style="fill:#bf0000;fill-opacity:1;fill-rule:nonzero;stroke:none"
       d="m 346.73022,535.8857 c 0,-1.621 0.24701,-3.207 0.812,-4.721 0.671,-1.903 1.624,-2.854 2.754,-2.854 0.671,0 1.201,0.458 1.554,1.374 0.31699,0.74 0.459,1.55 0.459,2.431 0,1.444 -0.31801,2.889 -0.989,4.333 -0.706,1.586 -1.589,2.572 -2.613,3.065 0.10602,1.022 0.17699,2.044 0.17699,3.065 0,1.234 -0.247,2.431 -0.777,3.594 1.448,0.564 2.542,0.846 3.248,0.846 -0.0351,0 0.212,-0.10601 0.742,-0.28201 l 0.176,0.14099 0,0.14099 c 0,0.17599 0,0.28098 0,0.28098 -0.35302,0.74 -0.882,1.093 -1.588,1.093 -0.459,0 -1.02401,-0.10598 -1.76601,-0.31698 -0.74099,-0.212 -1.30599,-0.423 -1.69399,-0.635 -1.095,1.198 -2.61301,1.832 -4.62501,1.832 -0.777,0 -1.58899,-0.176 -2.366,-0.563 -1.05899,-0.458 -1.553,-1.092 -1.553,-1.903 0,-0.91601 0.423,-1.62 1.341,-2.078 0.671,-0.388 1.44801,-0.564 2.33001,-0.564 1.34199,0 3.001,0.528 4.97899,1.585 0.0351,-0.352 0.10499,-0.845 0.176,-1.51501 0.0351,-1.057 -0.14099,-2.35999 -0.459,-3.87499 -0.812,0.28201 -1.765,0.423 -2.86,0.423 -1.447,0 -2.754,-0.423 -3.919,-1.269 -1.341,-0.951 -2.047,-2.29001 -2.047,-3.94601 0,-1.444 0.459,-2.677 1.341,-3.66399 0.848,-0.986 1.871,-1.47901 3.072,-1.444 0.953,0 1.518,0.247 1.765,0.77499 l 0,0.10602 -0.07,0.10499 -0.14201,0.10601 c -0.741,-0.247 -1.271,-0.35199 -1.553,-0.35199 -0.989,0 -1.871,0.35199 -2.613,1.057 -0.847,0.74 -1.236,1.726 -1.236,2.853 0,1.515 0.671,2.748 1.978,3.735 1.129,0.81 2.365,1.233 3.671,1.233 0.954,0 1.801,-0.10601 2.542,-0.28201 -0.176,-1.902 -0.24701,-3.206 -0.24701,-3.875 l 0,-0.0351 z m -5.154,9.688 c -1.624,0 -2.472,0.423 -2.472,1.304 0,0.704 0.53,1.198 1.624,1.515 0.671,0.211 1.448,0.31702 2.331,0.31702 0.776,0 1.412,-0.10602 1.941,-0.35302 0.35299,-0.14 0.918,-0.528 1.73,-1.092 -0.67,-0.493 -1.518,-0.881 -2.506,-1.198 -1.024,-0.352 -1.907,-0.493 -2.684,-0.493 l 0.036,0 z m 8.297,-16.594 c -0.671,0 -1.166,0.599 -1.483,1.762 -0.247,0.845 -0.389,1.797 -0.389,2.818 0,1.621 0.212,3.418 0.601,5.426 0.988,-0.846 1.73,-1.797 2.153,-2.854 0.42401,-1.057 0.636,-2.325 0.636,-3.84 0,-2.22 -0.495,-3.312 -1.518,-3.312 l 0,0 z"
       id="path3353"
       inkscape:connector-curvature="0" />
    <path
       style="fill:#bf0000;fill-opacity:1;fill-rule:nonzero;stroke:none"
       d="m 354.74522,544.7987 c 0,0.74 0.14099,1.409 0.388,1.973 0.31801,0.705 0.777,1.057 1.342,1.057 0.6,0 1.09401,-0.28201 1.447,-0.775 0.389,-0.493 0.56501,-1.128 0.53,-1.867 0.0351,-0.036 0.10602,-0.10601 0.24701,-0.17699 l 0.17699,0.071 c 0.10601,0.07 0.14099,0.28201 0.14099,0.564 0,0.704 -0.28301,1.338 -0.847,1.867 -0.53001,0.493 -1.13,0.74 -1.73,0.74 -1.06,0 -1.836,-0.599 -2.366,-1.797 -0.424,-0.916 -0.671,-2.114 -0.671,-3.488 0,-1.092 0.247,-2.29 0.706,-3.699 0.565,-1.656 1.23599,-2.466 1.977,-2.466 0.14201,0 0.53,0.176 1.201,0.563 0.6,0.35302 0.98799,0.634 1.165,0.881 0.21199,0.31699 0.35298,0.846 0.35298,1.585 0,1.128 -0.28201,2.15 -0.777,3.101 -0.6,1.022 -1.341,1.55 -2.259,1.55 -0.17698,0 -0.53,-0.07 -1.024,-0.247 l 0,0.564 z m 3.354,-4.827 c 0,-1.338 -0.35298,-2.008 -1.059,-2.008 -0.706,0 -1.236,0.634 -1.66,1.938 -0.31698,0.916 -0.494,1.902 -0.56499,2.995 0.071,0.0351 0.21199,0.28099 0.459,0.704 0.14201,0.212 0.38899,0.35298 0.70699,0.35298 0.635,0 1.2,-0.494 1.58801,-1.48 0.35298,-0.775 0.52999,-1.621 0.52999,-2.502 l 0,0 z"
       id="path3355"
       inkscape:connector-curvature="0" />
    <path
       style="fill:#bf0000;fill-opacity:1;fill-rule:nonzero;stroke:none"
       d="m 360.07623,545.1867 0.071,0 c 0.176,0 0.28201,0.10499 0.28201,0.31699 0,-0.036 0,0.14098 0,0.563 0,0.458 0.17699,0.81099 0.56501,1.128 0.31801,0.24601 0.671,0.387 1.059,0.387 0.42399,0 0.84799,-0.14099 1.165,-0.458 0.38899,-0.352 0.56499,-0.775 0.60099,-1.338 0,-0.56401 -0.35401,-1.093 -1.09499,-1.48 -1.23601,-0.74001 -1.90701,-1.128 -1.977,-1.16301 -0.706,-0.63399 -1.09501,-1.44399 -1.09501,-2.53599 0,-0.811 0.212,-1.656 0.63601,-2.572 0.459,-1.022 1.02399,-1.551 1.624,-1.551 0.28201,0 0.56499,0.10598 0.812,0.28201 0.247,0.176 0.494,0.388 0.706,0.564 0.63599,0.493 1.024,0.881 1.165,1.127 0.21199,0.388 0.31801,0.952 0.31801,1.727 l 0,1.233 c 0,0.493 -0.212,0.704 -0.6,0.704 -0.424,0 -0.636,-0.422 -0.636,-1.303 0,-0.14099 0,-0.31702 0,-0.599 0.036,-0.28201 0.036,-0.493 0.036,-0.634 0,-0.423 -0.071,-0.846 -0.17699,-1.233 -0.176,-0.494 -0.424,-0.74 -0.741,-0.74 -0.53,0 -0.954,0.423 -1.307,1.303 -0.28202,0.705 -0.423,1.41 -0.423,2.114 0,0.987 0.35298,1.762 1.059,2.29 0.635,0.35299 1.306,0.67 1.942,1.022 0.67,0.388 1.024,0.916 1.059,1.585 0,0.67 -0.35302,1.234 -1.095,1.656 -0.565,0.35299 -1.165,0.529 -1.8,0.529 -0.636,0 -1.201,-0.176 -1.695,-0.529 -0.565,-0.422 -0.88301,-0.986 -0.88301,-1.691 0,-0.31698 0.14202,-0.528 0.42401,-0.704 l 0,0 z"
       id="path3357"
       inkscape:connector-curvature="0" />
    <path
       style="fill:#bf0000;fill-opacity:1;fill-rule:nonzero;stroke:none"
       d="m 380.05922,540.7827 0.14202,-0.10602 c 0.388,-0.10601 0.882,-0.14098 1.482,-0.14098 0.283,0 0.707,0 1.236,0.0351 0.847,-2.642 1.624,-6.02401 2.295,-10.111 0.071,-0.564 0.212,-0.91601 0.388,-1.127 0.212,-0.212 0.53,-0.31802 0.954,-0.31802 0.247,0 0.529,0.10602 0.847,0.31802 0.28201,0.211 0.459,0.45799 0.53,0.739 -0.389,1.832 -0.601,4.158 -0.601,6.94099 0,1.51501 0,2.642 0,3.38201 0.17699,0 0.424,0 0.742,-0.0351 0.35298,0 0.6,0 0.777,0 0.28201,0 0.529,0 0.812,0.07 l 0.07,0.036 0.0351,0.10499 0,0.036 c 0,0.10499 0,0.14 0,0.176 -0.494,0.31698 -1.23501,0.528 -2.294,0.599 0.0351,1.021 0.211,2.149 0.494,3.417 0.35298,1.726 0.777,2.607 1.306,2.607 0.036,0 0.14098,-0.0351 0.247,-0.10602 0.10601,-0.0351 0.212,-0.07 0.247,-0.07 l 0.10602,0.07 c 0.036,0.036 0.036,0.14099 0.036,0.24701 0,0.10601 -0.071,0.211 -0.212,0.28201 -0.14099,0.10601 -0.247,0.14099 -0.35298,0.14099 -0.918,0 -1.695,-0.81 -2.366,-2.466 -0.459,-1.163 -0.812,-2.502 -0.988,-3.98101 l -2.578,0 c -1.518,5.03801 -3.707,7.53901 -6.531,7.53901 -1.201,0 -2.26,-0.493 -3.142,-1.515 -0.918,-1.022 -1.377,-2.255 -1.377,-3.734 0,-0.564 0.10601,-1.269 0.31698,-2.114 0.283,-1.057 0.601,-1.586 0.954,-1.586 0.21101,0 0.31699,0.14098 0.28201,0.458 l 0,0.071 c -0.74099,1.05701 -1.094,2.184 -1.094,3.347 0,1.268 0.35302,2.25501 1.059,2.994 0.67101,0.705 1.518,1.057 2.577,1.057 2.542,0 4.625,-2.21899 6.214,-6.623 -1.342,0 -2.154,-0.10601 -2.401,-0.28201 -0.0351,-0.0351 -0.0351,-0.0351 -0.07,-0.10601 -0.036,-0.0351 -0.071,-0.07 -0.071,-0.07 l -0.071,-0.176 z m 5.791,-3.594 c 0,-0.669 0.0351,-1.691 0.10499,-3.03 0.071,-1.339 0.10598,-2.325 0.10598,-2.994 0,-0.036 -0.0351,-0.10601 -0.07,-0.21199 0,0 -0.036,-0.0351 -0.071,-0.0351 l -0.0351,0 c -0.17699,0.211 -0.918,3.382 -2.26,9.583 l 2.225,0 0,-3.312 z"
       id="path3359"
       inkscape:connector-curvature="0" />
    <path
       style="fill:#bf0000;fill-opacity:1;fill-rule:nonzero;stroke:none"
       d="m 399.16023,537.8577 c 0.777,0 1.165,1.868 1.165,5.567 0,0.31702 0,0.775 0,1.374 -0.0351,0.599 -0.0351,1.057 -0.0351,1.374 0,0.529 0.247,0.916 0.776,1.127 l 0.036,0.14099 -0.036,0.10598 -0.10499,0.14099 c -0.071,0.0351 -0.21199,0.07 -0.389,0.07 -0.529,0 -0.953,-0.387 -1.271,-1.162 -0.247,-0.599 -0.388,-1.304 -0.35298,-2.008 l 0,-4.792 c 0,-0.17599 -0.0351,-0.35199 -0.14099,-0.458 l -0.10602,0 -0.10601,0 -0.14099,0.176 c -0.212,0.529 -0.424,1.339 -0.6,2.396 -0.071,0.458 -0.17699,1.163 -0.283,2.114 -0.10602,0.705 -0.212,1.374 -0.28202,2.079 -0.21199,1.092 -0.495,1.655 -0.81199,1.655 -0.424,0 -0.671,-0.422 -0.81201,-1.233 -0.036,-0.422 -0.071,-1.021 -0.071,-1.832 0,-0.176 0,-0.669 0.0351,-1.515 0,-0.634 0.036,-1.127 0.036,-1.515 0,-1.444 -0.21199,-2.219 -0.56499,-2.36 -0.38901,0.07 -0.706,0.881 -0.918,2.431 -0.17699,1.409 -0.38901,2.818 -0.565,4.263 -0.24701,1.48 -0.636,2.255 -1.13,2.255 -0.635,0 -0.95301,-0.916 -0.95301,-2.713 0,-0.881 0.07,-2.184 0.212,-3.911 0.14099,-1.691 0.211,-2.994 0.211,-3.84 0,-0.28201 0.212,-0.388 0.671,-0.388 0.14202,0 0.35302,0.071 0.56501,0.21199 0.247,0.14099 0.35298,0.31699 0.35298,0.49301 0,0.247 -0.0351,0.599 -0.14099,0.98699 -0.14099,0.52801 -0.21199,0.84501 -0.21199,0.986 -0.31802,2.36101 -0.494,4.26301 -0.494,5.67201 0,0.28201 0.071,0.423 0.21199,0.423 0,0 0.07,-0.176 0.14099,-0.52801 0.14099,-0.49399 0.28201,-1.233 0.459,-2.255 0.388,-3.45299 1.059,-5.179 2.012,-5.179 0.848,0 1.307,1.40901 1.307,4.19201 0,0.247 -0.036,0.59899 -0.036,1.093 -0.0351,0.49299 -0.0351,0.87999 -0.0351,1.12699 0,0.14099 0,0.21101 0.071,0.24701 0.247,-1.339 0.494,-2.678 0.706,-4.052 0.424,-1.973 0.953,-2.96 1.624,-2.96 l 0,0 z"
       id="path3361"
       inkscape:connector-curvature="0" />
    <path
       style="fill:#bf0000;fill-opacity:1;fill-rule:nonzero;stroke:none"
       d="m 404.59723,538.8447 c -0.212,0.528 -0.388,1.55 -0.53,3.065 -0.14099,1.198 -0.176,2.255 -0.21101,3.241 0,1.198 0.24701,1.797 0.741,1.797 0.14099,0 0.31801,-0.176 0.494,-0.528 l 0.17699,-0.071 0.14099,0.071 c 0.071,0.07 0.10601,0.21101 0.10601,0.387 0,0.212 -0.10601,0.388 -0.35298,0.564 -0.17699,0.14099 -0.388,0.211 -0.6,0.211 -1.307,0 -1.942,-1.33799 -1.942,-4.016 0,-0.564 0.071,-1.445 0.17599,-2.607 0.14202,-1.128 0.17699,-2.008 0.17699,-2.57199 0,-0.45801 0.28201,-0.66901 0.812,-0.66901 0.17699,0 0.388,0.10499 0.565,0.352 0.176,0.28201 0.24701,0.528 0.24701,0.775 l 0,0 z m 0.424,-3.382 c 0,0.28201 -0.10602,0.528 -0.35299,0.74 -0.283,0.211 -0.53,0.31702 -0.742,0.31702 -0.6,0 -0.882,-0.31702 -0.918,-0.952 0,-0.28099 0.10602,-0.528 0.31801,-0.739 0.17699,-0.212 0.424,-0.28201 0.671,-0.28201 0.212,0 0.459,0.07 0.671,0.24601 0.24701,0.17699 0.35299,0.388 0.35299,0.67 l 0,0 z"
       id="path3363"
       inkscape:connector-curvature="0" />
    <path
       style="fill:#bf0000;fill-opacity:1;fill-rule:nonzero;stroke:none"
       d="m 406.36223,545.1867 0.10601,0 c 0.14099,0 0.247,0.10499 0.283,0.31699 -0.036,-0.036 -0.036,0.14098 -0.036,0.563 0,0.458 0.212,0.81099 0.565,1.128 0.31801,0.24601 0.67101,0.387 1.05901,0.387 0.459,0 0.84799,-0.14099 1.201,-0.458 0.35298,-0.352 0.56499,-0.775 0.56499,-1.338 0,-0.56401 -0.35298,-1.093 -1.05899,-1.48 -1.27101,-0.74001 -1.94201,-1.128 -2.013,-1.16301 -0.706,-0.63399 -1.05901,-1.44399 -1.05901,-2.53599 0,-0.811 0.17699,-1.656 0.60001,-2.572 0.459,-1.022 1.02399,-1.551 1.62399,-1.551 0.31801,0 0.565,0.10598 0.84801,0.28201 0.211,0.176 0.459,0.388 0.706,0.564 0.59999,0.493 0.98799,0.881 1.165,1.127 0.21199,0.388 0.31801,0.952 0.31801,1.727 l 0,1.233 c 0,0.493 -0.212,0.704 -0.636,0.704 -0.424,0 -0.635,-0.422 -0.635,-1.303 0,-0.14099 0,-0.31702 0.0351,-0.599 0,-0.28201 0,-0.493 0,-0.634 0,-0.423 -0.0351,-0.846 -0.17699,-1.233 -0.176,-0.494 -0.423,-0.74 -0.741,-0.74 -0.53,0 -0.953,0.423 -1.271,1.303 -0.283,0.705 -0.424,1.41 -0.424,2.114 0,0.987 0.35299,1.762 1.024,2.29 0.671,0.35299 1.306,0.67 1.942,1.022 0.706,0.388 1.059,0.916 1.059,1.585 0,0.67 -0.35298,1.234 -1.059,1.656 -0.6,0.35299 -1.2,0.529 -1.836,0.529 -0.635,0 -1.2,-0.176 -1.695,-0.529 -0.565,-0.422 -0.847,-0.986 -0.847,-1.691 0,-0.31698 0.10602,-0.528 0.388,-0.704 l 0,0 z"
       id="path3365"
       inkscape:connector-curvature="0" />
    <path
       style="fill:#bf0000;fill-opacity:1;fill-rule:nonzero;stroke:none"
       d="m 434.64323,546.7017 c 0.529,0 0.882,-0.17699 1.059,-0.529 0.247,-0.387 0.388,-0.599 0.388,-0.599 0.14099,0.071 0.212,0.176 0.247,0.31699 l 0,0.14098 c 0,0.423 -0.28201,0.77501 -0.847,1.09201 -0.459,0.247 -0.883,0.35302 -1.271,0.35302 -2.33,0 -4.484,-2.04401 -6.426,-6.13101 l 0,0.564 c 0,0.458 -0.0351,1.127 -0.0351,2.008 -0.0351,0.881 -0.071,1.55 -0.071,1.973 0,0.212 0.036,0.493 0.10601,0.811 0.10602,0.387 0.14099,0.634 0.14099,0.73901 -0.10602,0.38799 -0.35298,0.59899 -0.741,0.59899 -0.10601,0 -0.424,-0.14098 -0.918,-0.387 l -0.14099,-0.31698 0,-2.185 c 0,-3.241 0.14099,-6.165 0.459,-8.807 0,-0.071 0.10602,-0.846 0.31802,-2.255 0.14098,-0.952 0.211,-1.727 0.211,-2.326 0,-0.17599 0,-0.35199 0,-0.528 0.17699,-0.28201 0.389,-0.458 0.636,-0.458 0.671,0 1.024,0.31702 1.024,0.916 0,0.10602 -0.036,0.31699 -0.14099,0.669 -0.283,1.093 -0.459,2.255 -0.601,3.488 -0.10601,0.987 -0.17599,2.502 -0.21199,4.545 0.283,-0.387 0.601,-0.564 0.918,-0.564 0.17699,0 0.35298,0.17699 0.459,0.529 0.21199,0.493 0.35298,0.845 0.495,0.986 0.28201,0.35302 0.706,0.564 1.271,0.564 1.024,0 1.906,-0.528 2.612,-1.585 0.706,-1.022 1.06,-2.185 1.06,-3.453 0,-2.29 -0.812,-4.052 -2.366,-5.32 -1.377,-1.127 -3.036,-1.691 -5.01301,-1.691 -1.80099,0 -3.46,0.493 -4.97899,1.409 -1.836,1.163 -2.789,2.713 -2.789,4.686 0,1.304 0.459,2.29 1.307,2.995 0.776,0.599 1.694,0.88 2.78899,0.88 0.176,0 0.423,-0.0351 0.81201,-0.14 0.388,-0.10598 0.635,-0.17698 0.812,-0.17698 l 0.10601,0.071 0.07,0.176 c -0.07,0.599 -0.776,0.881 -2.118,0.881 -1.2,0 -2.189,-0.458 -3.001,-1.304 -0.883,-0.881 -1.342,-2.043 -1.342,-3.452 0,-1.128 0.424,-2.326 1.236,-3.524 1.836,-2.642 4.696,-3.981 8.509,-3.981 1.906,0 3.601,0.67 5.084,2.079 1.589,1.48 2.365,3.382 2.365,5.637 0,1.48 -0.564,2.924 -1.694,4.333 -1.165,1.374 -2.33,2.079 -3.566,2.079 -0.283,0 -0.565,-0.0351 -0.777,-0.10602 0.883,1.30401 1.518,2.22 2.013,2.71301 0.917,1.057 1.765,1.58599 2.577,1.58599 l -0.0351,0 z"
       id="path3367"
       inkscape:connector-curvature="0" />
    <path
       style="fill:#bf0000;fill-opacity:1;fill-rule:nonzero;stroke:none"
       d="m 440.78623,531.7627 c 0.17599,0 0.35298,0.10602 0.6,0.31801 0.247,0.21101 0.35298,0.387 0.35298,0.563 0,0.423 -0.38799,1.022 -1.2,1.832 -0.81199,0.81101 -1.413,1.19801 -1.801,1.19801 -0.0351,0.0351 -0.14098,0 -0.28201,-0.10602 -0.036,-0.10499 -0.036,-0.176 -0.036,-0.211 0,-0.07 0.036,-0.176 0.10602,-0.28202 0.10601,-0.14098 0.283,-0.35199 0.53,-0.634 0.565,-0.74 0.988,-1.55 1.271,-2.431 0.14099,-0.14099 0.28201,-0.247 0.459,-0.247 l 0,0 z m -2.048,13.036 c 0,0.74 0.10601,1.409 0.35298,1.973 0.31801,0.705 0.777,1.057 1.377,1.057 0.6,0 1.059,-0.28201 1.448,-0.775 0.35298,-0.493 0.529,-1.128 0.529,-1.867 0.0351,-0.036 0.10602,-0.10601 0.212,-0.17699 l 0.17699,0.071 c 0.10498,0.07 0.17599,0.28201 0.17599,0.564 0,0.704 -0.31801,1.338 -0.883,1.867 -0.529,0.493 -1.094,0.74 -1.73,0.74 -1.023,0 -1.835,-0.599 -2.365,-1.797 -0.424,-0.916 -0.636,-2.114 -0.636,-3.488 0,-1.092 0.212,-2.29 0.707,-3.699 0.529,-1.656 1.2,-2.466 1.941,-2.466 0.14202,0 0.565,0.176 1.201,0.563 0.635,0.35302 0.988,0.634 1.165,0.881 0.24701,0.31699 0.35302,0.846 0.35302,1.585 0,1.128 -0.247,2.15 -0.777,3.101 -0.6,1.022 -1.341,1.55 -2.224,1.55 -0.17699,0 -0.53,-0.07 -1.024,-0.247 l 0,0.564 z m 3.354,-4.827 c 0,-1.338 -0.388,-2.008 -1.094,-2.008 -0.671,0 -1.236,0.634 -1.66,1.938 -0.31801,0.916 -0.494,1.902 -0.565,2.995 0.071,0.0351 0.212,0.28099 0.495,0.704 0.10601,0.212 0.35298,0.35298 0.67,0.35298 0.671,0 1.201,-0.494 1.625,-1.48 0.35298,-0.775 0.529,-1.621 0.529,-2.502 l 0,0 z"
       id="path3369"
       inkscape:connector-curvature="0" />
    <path
       style="fill:#bf0000;fill-opacity:1;fill-rule:nonzero;stroke:none"
       d="m 444.03423,543.7417 c 0,-0.705 0.0351,-1.902 0.176,-3.558 0,-0.31698 0.036,-0.775 0.071,-1.409 0.0351,-0.388 0.24701,-0.564 0.565,-0.564 0.6,0 0.883,0.35199 0.883,1.057 0,0 -0.036,0.10499 -0.10601,0.35199 -0.24701,1.022 -0.35299,2.537 -0.35299,4.51 0,2.008 0.35299,3.03 1.059,3.03 0.741,0 1.271,-1.234 1.589,-3.664 0.176,-1.445 0.28201,-3.03 0.28201,-4.792 0,-0.528 0.17699,-0.775 0.565,-0.775 0.212,0 0.38801,0.07 0.6,0.247 0.212,0.176 0.31802,0.352 0.31802,0.599 0,0.598 -0.071,1.514 -0.24701,2.748 -0.14099,1.197 -0.21199,2.113 -0.21199,2.748 0,1.303 0.071,2.113 0.17599,2.395 0.10602,0.10602 0.212,0.14099 0.35401,0.14099 0.14099,0 0.31702,-0.10499 0.49401,-0.28201 l 0.0351,0 c 0.10602,0.10601 0.14099,0.247 0.14099,0.35298 0,0.14099 -0.07,0.24601 -0.211,0.352 -0.14198,0.10601 -0.28301,0.14098 -0.424,0.14098 -0.459,0 -0.812,-0.247 -1.095,-0.74 -0.14099,-0.28201 -0.31702,-0.81 -0.494,-1.515 -0.071,0.67 -0.31801,1.268 -0.706,1.797 -0.424,0.564 -0.918,0.845 -1.448,0.845 -0.741,0 -1.306,-0.493 -1.624,-1.409 -0.28201,-0.669 -0.388,-1.55 -0.388,-2.607 l 0,0 z"
       id="path3371"
       inkscape:connector-curvature="0" />
    <path
       style="fill:#bf0000;fill-opacity:1;fill-rule:nonzero;stroke:none"
       d="m 457.73323,547.4407 c 0,0.17699 -0.14099,0.28201 -0.424,0.28201 -0.53,0 -0.989,-0.35199 -1.306,-1.057 -0.283,-0.599 -0.424,-1.26799 -0.424,-2.008 l 0,-4.89699 c 0,-0.423 -0.14099,-0.63401 -0.35302,-0.63401 l -0.071,0 c -0.423,0.176 -0.74099,1.05701 -0.95299,2.642 -0.176,1.409 -0.35302,2.81901 -0.494,4.22801 -0.24701,1.48 -0.60001,2.21999 -1.05901,2.21999 -0.636,0 -0.918,-0.881 -0.918,-2.64299 l 0,-0.56401 c 0,-0.84499 0.07,-2.07799 0.24701,-3.73399 0.17599,-1.656 0.247,-2.889 0.247,-3.699 0,-0.31699 0.17699,-0.458 0.565,-0.458 0.212,0 0.388,0.07 0.6,0.17599 0.212,0.176 0.31801,0.35199 0.31801,0.563 0,0.10602 -0.071,0.494 -0.17698,1.163 -0.10602,0.599 -0.24701,1.55 -0.459,2.783 -0.176,1.621 -0.28202,2.995 -0.28202,4.087 0,0 0,0.0351 0.0351,0.071 0,0 0,0.0351 0,0.07 l 0.0351,0.0351 c 0.14202,-0.0351 0.31801,-0.775 0.53,-2.184 0.24701,-1.79699 0.494,-3.1 0.742,-3.875 0.388,-1.374 0.917,-2.079 1.518,-2.079 0.28201,0 0.529,0.14099 0.741,0.423 0.17699,0.24602 0.28301,0.563 0.31801,0.916 0.0351,0.176 0.0351,0.77501 0.0351,1.726 0.0351,0.81 0.0351,1.973 0.071,3.55801 0.0351,0.423 0.07,1.05699 0.14099,1.90299 0.071,0.35199 0.21199,0.564 0.424,0.634 0.21199,0.071 0.31698,0.176 0.35298,0.24701 l 0,0.10499 z"
       id="path3373"
       inkscape:connector-curvature="0" />
    <path
       style="fill:#bf0000;fill-opacity:1;fill-rule:nonzero;stroke:none"
       d="m 460.98123,538.8447 c -0.247,0.528 -0.424,1.55 -0.565,3.065 -0.10602,1.198 -0.17699,2.255 -0.17699,3.241 -0.0351,1.198 0.212,1.797 0.707,1.797 0.14099,0 0.31702,-0.176 0.529,-0.528 l 0.14099,-0.071 0.14202,0.071 c 0.10601,0.07 0.14098,0.21101 0.14098,0.387 0,0.212 -0.10601,0.388 -0.35298,0.564 -0.212,0.14099 -0.424,0.211 -0.636,0.211 -1.271,0 -1.906,-1.33799 -1.906,-4.016 0,-0.564 0.0351,-1.445 0.17599,-2.607 0.10602,-1.128 0.17699,-2.008 0.17699,-2.57199 0,-0.45801 0.24701,-0.66901 0.777,-0.66901 0.21101,0 0.388,0.10499 0.564,0.352 0.17699,0.28201 0.28301,0.528 0.28301,0.775 l 0,0 z m 0.424,-3.382 c 0,0.28201 -0.14198,0.528 -0.389,0.74 -0.247,0.211 -0.494,0.31702 -0.741,0.31702 -0.6,0 -0.883,-0.31702 -0.883,-0.952 -0.0351,-0.28099 0.071,-0.528 0.283,-0.739 0.21101,-0.212 0.423,-0.28201 0.706,-0.28201 0.212,0 0.423,0.07 0.635,0.24601 0.24701,0.17699 0.389,0.388 0.389,0.67 l 0,0 z"
       id="path3375"
       inkscape:connector-curvature="0" />
    <path
       style="fill:#bf0000;fill-opacity:1;fill-rule:nonzero;stroke:none"
       d="m 462.71123,545.1867 0.10601,0 c 0.176,0 0.24701,0.10499 0.28202,0.31699 0,-0.036 0,0.14098 0,0.563 0,0.458 0.17698,0.81099 0.52999,1.128 0.31802,0.24601 0.706,0.387 1.09401,0.387 0.424,0 0.812,-0.14099 1.16499,-0.458 0.38901,-0.352 0.56501,-0.775 0.56501,-1.338 0,-0.56401 -0.35299,-1.093 -1.059,-1.48 -1.27101,-0.74001 -1.94201,-1.128 -1.97701,-1.16301 -0.74099,-0.63399 -1.094,-1.44399 -1.094,-2.53599 0,-0.811 0.21101,-1.656 0.60001,-2.572 0.49399,-1.022 1.02399,-1.551 1.65899,-1.551 0.28301,0 0.56501,0.10598 0.81201,0.28201 0.247,0.176 0.459,0.388 0.706,0.564 0.636,0.493 1.02399,0.881 1.16499,1.127 0.212,0.388 0.31802,0.952 0.31802,1.727 l 0,1.233 c 0,0.493 -0.212,0.704 -0.635,0.704 -0.389,0 -0.60101,-0.422 -0.60101,-1.303 0,-0.14099 0,-0.31702 0,-0.599 0.036,-0.28201 0.036,-0.493 0.036,-0.634 0,-0.423 -0.071,-0.846 -0.21199,-1.233 -0.17699,-0.494 -0.424,-0.74 -0.706,-0.74 -0.53,0 -0.953,0.423 -1.307,1.303 -0.28201,0.705 -0.423,1.41 -0.423,2.114 0,0.987 0.35298,1.762 1.059,2.29 0.635,0.35299 1.271,0.67 1.942,1.022 0.671,0.388 1.024,0.916 1.024,1.585 0,0.67 -0.35299,1.234 -1.06,1.656 -0.6,0.35299 -1.2,0.529 -1.8,0.529 -0.636,0 -1.201,-0.176 -1.695,-0.529 -0.6,-0.422 -0.882,-0.986 -0.882,-1.691 0,-0.31698 0.14099,-0.528 0.388,-0.704 l 0,0 z"
       id="path3377"
       inkscape:connector-curvature="0" />
    <path
       style="fill:#000000;fill-opacity:1;fill-rule:nonzero;stroke:none"
       d="m 329.81922,566.0787 c 0,-2.044 0.423,-4.017 1.271,-5.919 1.059,-2.396 2.471,-3.594 4.272,-3.594 1.024,0 1.836,0.564 2.401,1.727 0.459,0.916 0.706,1.937 0.706,3.065 0,1.797 -0.495,3.629 -1.518,5.425 -1.13,1.973 -2.472,3.242 -4.096,3.841 0.212,1.268 0.31802,2.572 0.31802,3.84 0,1.585 -0.389,3.065 -1.201,4.509 2.225,0.705 3.919,1.057 5.049,1.057 -0.10602,0 0.283,-0.10499 1.13,-0.35199 l 0.28201,0.176 0,0.21199 c 0,0.21101 0,0.31699 0,0.31699 -0.529,0.916 -1.377,1.374 -2.506,1.374 -0.671,0 -1.589,-0.14099 -2.719,-0.388 -1.13,-0.24602 -2.012,-0.528 -2.613,-0.81 -1.694,1.515 -4.06,2.29 -7.167,2.29 -1.235,0 -2.471,-0.212 -3.707,-0.67 -1.589,-0.598 -2.401,-1.409 -2.401,-2.395 0,-1.163 0.706,-2.044 2.119,-2.643 1.024,-0.458 2.22399,-0.669 3.566,-0.669 2.083,0 4.66,0.669 7.732,1.973 0.10601,-0.423 0.21199,-1.057 0.31698,-1.903 0,-1.338 -0.247,-2.959 -0.741,-4.861 -1.271,0.35199 -2.754,0.528 -4.449,0.528 -2.259,0 -4.272,-0.528 -6.037,-1.585 -2.118,-1.198 -3.177,-2.854 -3.177,-4.933 0,-1.832 0.706,-3.347 2.047,-4.615 1.307,-1.233 2.895,-1.83201 4.767,-1.83201 1.482,0.0351 2.365,0.352 2.718,0.98601 l 0,0.14099 -0.07,0.14098 -0.248,0.10602 c -1.129,-0.28201 -1.941,-0.423 -2.4,-0.423 -1.519,0 -2.86,0.423 -4.025,1.304 -1.307,0.986 -1.942,2.184 -1.942,3.593 0,1.903 1.024,3.453 3.072,4.686 1.765,1.057 3.671,1.55 5.719,1.55 1.448,0 2.789,-0.10499 3.919,-0.35199 -0.247,-2.361 -0.388,-3.981 -0.388,-4.862 l 0,-0.0351 z m -7.979,12.119 c -2.542,0 -3.814,0.564 -3.814,1.656 0,0.881 0.813,1.515 2.472,1.903 1.059,0.28201 2.26,0.387 3.636,0.387 1.201,0 2.189,-0.14099 3.001,-0.423 0.565,-0.176 1.448,-0.634 2.684,-1.374 -1.059,-0.598 -2.366,-1.092 -3.884,-1.514 -1.589,-0.423 -2.966,-0.635 -4.131,-0.635 l 0.036,0 z m 12.851,-20.786 c -1.024,0 -1.765,0.74 -2.295,2.219 -0.388,1.093 -0.565,2.255 -0.6,3.524 0,2.043 0.31801,4.298 0.918,6.799 1.553,-1.057 2.683,-2.255 3.354,-3.593 0.671,-1.304 1.024,-2.925 1.024,-4.792 0,-2.783 -0.812,-4.157 -2.401,-4.157 l 0,0 z"
       id="path3379"
       inkscape:connector-curvature="0" />
    <path
       style="fill:#000000;fill-opacity:1;fill-rule:nonzero;stroke:none"
       d="m 342.24622,577.2467 c 0,0.951 0.212,1.797 0.601,2.502 0.494,0.845 1.2,1.268 2.083,1.268 0.953,0 1.694,-0.28201 2.259,-0.916 0.601,-0.634 0.848,-1.409 0.812,-2.361 0.071,-0.07 0.17699,-0.14099 0.35302,-0.211 l 0.28301,0.10601 c 0.17599,0.07 0.247,0.31699 0.247,0.669 0,0.91601 -0.459,1.69101 -1.342,2.36101 -0.812,0.598 -1.73,0.91599 -2.683,0.91599 -1.624,0 -2.824,-0.73999 -3.672,-2.21999 -0.671,-1.198 -0.988,-2.678 -0.988,-4.40401 0,-1.33899 0.35298,-2.889 1.059,-4.61499 0.883,-2.079 1.906,-3.136 3.072,-3.136 0.211,0 0.812,0.247 1.871,0.73999 0.918,0.423 1.518,0.775 1.765,1.09201 0.388,0.38799 0.565,1.057 0.565,1.97299 0,1.409 -0.424,2.713 -1.2,3.87601 -0.954,1.30299 -2.084,1.97299 -3.46,1.97299 -0.283,0 -0.848,-0.10601 -1.625,-0.31801 l 0,0.705 z m 5.19,-6.024 c 0,-1.692 -0.529,-2.537 -1.659,-2.537 -1.059,0 -1.906,0.81 -2.577,2.431 -0.459,1.127 -0.742,2.396 -0.848,3.734 0.10602,0.071 0.31801,0.35299 0.707,0.881 0.21101,0.28201 0.6,0.423 1.094,0.423 1.024,0 1.836,-0.599 2.507,-1.797 0.529,-0.986 0.776,-2.043 0.776,-3.135 l 0,0 z"
       id="path3381"
       inkscape:connector-curvature="0" />
    <path
       style="fill:#000000;fill-opacity:1;fill-rule:nonzero;stroke:none"
       d="m 371.69222,579.2907 c 0,-5.99 0.28202,-10.781 0.847,-14.34 0.10602,-0.563 0.212,-1.374 0.388,-2.501 l 0,-0.247 c 0.036,-0.176 0.036,-0.24601 0.036,-0.24601 l 0,0 c -0.10601,0 -0.10601,-0.176 0.0351,-0.494 0.0351,-0.528 0.14099,-0.845 0.28301,-0.951 0.14098,-0.10499 0.494,-0.14099 1.02299,-0.14099 0.248,0 0.459,0.10601 0.74201,0.31698 0.247,0.212 0.388,0.423 0.388,0.635 0,0.21101 -0.07,0.634 -0.212,1.233 -0.565,2.536 -0.882,6.165 -0.882,10.851 l 0,3.805 c 0,0.387 0.07,0.951 0.14099,1.761 0.28201,0.10598 0.777,0.529 1.447,1.234 0.424,0.387 1.201,0.598 2.295,0.598 1.236,0 2.578,-0.563 4.061,-1.691 0.918,-0.739 1.659,-1.937 2.224,-3.628 0.494,-1.445 0.741,-2.889 0.741,-4.228 0,-3.7 -1.165,-6.659 -3.46,-8.843 -2.33,-2.185 -5.331,-3.312 -9.073,-3.312 -2.79,0 -5.367,0.669 -7.768,1.973 -2.859,1.585 -4.272,3.594 -4.272,6.095 0,1.691 0.6,3.03 1.836,3.946 1.13,0.881 2.578,1.303 4.343,1.303 1.059,0 1.942,-0.17599 2.612,-0.563 l 0.10602,0 c -0.0351,0 0,0.0351 0.17698,0.07 0,0.071 0.0351,0.17599 0.0351,0.31698 0,0 -0.0351,0.0351 -0.0351,0.10602 0,0.0351 0,0.10601 0,0.14099 -0.52999,0.599 -1.55399,0.881 -3.07199,0.845 -1.871,0 -3.424,-0.528 -4.69501,-1.585 -1.377,-1.092 -2.048,-2.501 -2.048,-4.298 0,-3.065 1.65901,-5.567 4.97801,-7.504 2.824,-1.621 5.931,-2.431 9.25,-2.431 3.778,0 6.991,1.127 9.568,3.452 2.719,2.361 4.06,5.426 4.06,9.09 0,2.818 -0.918,5.39 -2.754,7.716 -1.941,2.466 -4.307,3.699 -7.096,3.699 -1.2,0 -2.366,-0.35199 -3.566,-0.987 -0.388,0.071 -0.777,0.10601 -1.13,0.10601 -1.024,0 -1.553,-0.458 -1.553,-1.303 l 0,0 z"
       id="path3383"
       inkscape:connector-curvature="0" />
    <path
       style="fill:#000000;fill-opacity:1;fill-rule:nonzero;stroke:none"
       d="m 394.81723,567.0997 c 0.53,0 0.989,0.14099 1.377,0.458 0.389,0.28201 0.883,0.494 1.554,0.67 0.84699,0.176 1.483,1.092 1.906,2.713 0.283,1.092 0.424,2.325 0.424,3.699 0,1.726 -0.35299,3.241 -1.095,4.545 -0.882,1.62 -2.118,2.431 -3.742,2.431 -1.624,0 -2.86,-0.74 -3.672,-2.22 -0.671,-1.198 -0.988,-2.677 -0.988,-4.439 0,-1.515 0.35298,-3.1 1.023,-4.721 0.84799,-2.079 1.907,-3.136 3.178,-3.136 l 0.0351,0 z m 3.99,8.28 c 0.0351,-2.008 -0.24701,-3.699 -0.883,-5.109 -0.14099,-0.387 -0.28202,-0.634 -0.388,-0.704 -0.14099,-0.212 -0.35299,-0.388 -0.706,-0.494 -0.424,-0.17599 -0.671,-0.31698 -0.777,-0.387 -0.0351,0 -0.071,0 -0.14099,0 -0.071,-0.0351 -0.10602,-0.0351 -0.14099,-0.0351 -1.06,0 -1.907,1.092 -2.472,3.241 -0.424,1.55 -0.6,3.065 -0.6,4.58 0,1.127 0.176,2.079 0.529,2.854 0.459,1.021 1.201,1.515 2.189,1.515 1.13,0 2.013,-0.67 2.648,-2.008 0.495,-1.057 0.742,-2.22 0.742,-3.453 l 0,0 z"
       id="path3385"
       inkscape:connector-curvature="0" />
    <path
       style="fill:#000000;fill-opacity:1;fill-rule:nonzero;stroke:none"
       d="m 402.26722,575.9077 c 0,-0.88 0.10602,-2.36 0.31802,-4.439 0,-0.387 0.0351,-0.986 0.07,-1.761 0.071,-0.494 0.389,-0.74 0.918,-0.74 0.883,0 1.342,0.458 1.342,1.339 0,0 -0.0351,0.14 -0.14099,0.458 -0.389,1.268 -0.601,3.17 -0.601,5.637 0,2.536 0.565,3.805 1.695,3.805 1.13,0 1.907,-1.551 2.401,-4.581 0.31801,-1.832 0.459,-3.805 0.459,-5.989 0,-0.669 0.28201,-1.022 0.883,-1.022 0.31702,0 0.635,0.10602 0.953,0.31801 0.31801,0.21101 0.459,0.458 0.459,0.775 0,0.739 -0.10601,1.902 -0.35298,3.417 -0.24701,1.55 -0.35302,2.678 -0.35302,3.453 0,1.656 0.10601,2.677 0.31702,2.994 0.10598,0.14099 0.283,0.212 0.495,0.212 0.21199,0 0.494,-0.14099 0.812,-0.388 l 0,0 c 0.17599,0.176 0.28201,0.31698 0.28201,0.458 0,0.17599 -0.14099,0.31702 -0.35302,0.423 -0.24701,0.14098 -0.459,0.211 -0.635,0.211 -0.742,0 -1.307,-0.31698 -1.73,-0.951 -0.212,-0.35199 -0.495,-0.986 -0.742,-1.902 -0.10602,0.845 -0.494,1.585 -1.13,2.254 -0.67,0.705 -1.412,1.057 -2.224,1.057 -1.165,0 -2.012,-0.599 -2.542,-1.761 -0.388,-0.846 -0.6,-1.938 -0.6,-3.277 l 0,0 z"
       id="path3387"
       inkscape:connector-curvature="0" />
    <path
       style="fill:#000000;fill-opacity:1;fill-rule:nonzero;stroke:none"
       d="m 414.37723,571.7157 c 0,-2.678 0.35298,-5.355 1.024,-8.033 0.953,-3.84 2.365,-5.778 4.201,-5.778 0.883,0 1.554,0.705 1.977,2.044 0.247,0.916 0.389,2.008 0.389,3.241 0,2.713 -0.35299,5.249 -1.095,7.61 -0.882,2.818 -2.189,5.003 -3.884,6.482 0.424,2.255 1.307,3.347 2.648,3.347 0.35401,0 0.671,-0.14099 0.918,-0.387 0.35298,-0.423 0.601,-0.67 0.671,-0.74 l 0.14099,0 c 0.17699,0.176 0.283,0.35199 0.283,0.458 0,0.423 -0.283,0.775 -0.812,1.092 -0.459,0.24701 -0.918,0.388 -1.377,0.388 -0.989,0 -1.801,-0.388 -2.507,-1.128 -0.388,-0.423 -0.918,-1.198 -1.518,-2.36 -0.0351,0 -0.071,0 -0.14099,0.0351 -0.071,0 -0.14099,0 -0.17699,0 -1.23499,0 -1.90599,-0.31698 -2.083,-0.916 l 0.071,-0.28201 0.176,-0.10602 0.21199,-0.0351 0.60001,0.423 c 0.31801,0.0351 0.52999,0.07 0.707,0.07 0.0351,0 0.10498,0 0.17599,-0.0351 0.10602,0 0.17699,0 0.212,0 -0.494,-2.184 -0.777,-3.981 -0.777,-5.39 l -0.0351,0 z m 4.907,-12.085 c -0.812,0 -1.482,1.832 -2.118,5.497 -0.494,2.924 -0.706,5.179 -0.706,6.764 0,1.198 0.10601,2.748 0.28201,4.615 1.377,-1.092 2.401,-2.924 3.072,-5.496 0.53,-1.938 0.812,-4.087 0.812,-6.412 0,-3.312 -0.459,-4.968 -1.342,-4.968 l 0,0 z"
       id="path3389"
       inkscape:connector-curvature="0" />
    <path
       style="fill:#000000;fill-opacity:1;fill-rule:nonzero;stroke:none"
       d="m 426.34623,569.7777 c -0.31802,0.669 -0.601,1.938 -0.848,3.84 -0.176,1.515 -0.28201,2.854 -0.28201,4.052 -0.0351,1.515 0.35298,2.29 1.094,2.29 0.247,0 0.53,-0.211 0.812,-0.669 l 0.247,-0.10602 0.212,0.07 c 0.14201,0.10602 0.21199,0.28201 0.21199,0.494 0,0.28098 -0.17599,0.528 -0.565,0.739 -0.31698,0.17699 -0.635,0.247 -0.95299,0.247 -1.97701,0 -3.00101,-1.656 -3.00101,-5.003 0,-0.74 0.10602,-1.832 0.28202,-3.276 0.21199,-1.445 0.283,-2.53699 0.283,-3.242 0,-0.563 0.424,-0.845 1.236,-0.845 0.28201,0 0.6,0.14099 0.847,0.458 0.28201,0.31699 0.424,0.634 0.424,0.951 l 0,0 z m 0.67,-4.263 c 0,0.388 -0.176,0.705 -0.6,0.951 -0.388,0.28201 -0.777,0.423 -1.13,0.423 -0.918,0 -1.377,-0.423 -1.412,-1.198 0,-0.387 0.14099,-0.704 0.494,-0.951 0.283,-0.247 0.636,-0.35199 1.06,-0.35199 0.31702,0 0.67,0.10499 1.024,0.31698 0.388,0.24602 0.564,0.49301 0.564,0.81 l 0,0 z"
       id="path3391"
       inkscape:connector-curvature="0" />
    <path
       style="fill:#000000;fill-opacity:1;fill-rule:nonzero;stroke:none"
       d="m 430.44123,577.2467 c 0,0.951 0.21199,1.797 0.6,2.502 0.495,0.845 1.201,1.268 2.083,1.268 0.918,0 1.695,-0.28201 2.26,-0.916 0.565,-0.634 0.847,-1.409 0.812,-2.361 0.0351,-0.07 0.17699,-0.14099 0.35302,-0.211 l 0.283,0.10601 c 0.176,0.07 0.24701,0.31699 0.24701,0.669 0,0.91601 -0.459,1.69101 -1.342,2.36101 -0.812,0.598 -1.73,0.91599 -2.683,0.91599 -1.624,0 -2.825,-0.73999 -3.672,-2.21999 -0.671,-1.198 -0.989,-2.678 -0.989,-4.40401 0,-1.33899 0.35298,-2.889 1.06,-4.61499 0.882,-2.079 1.906,-3.136 3.036,-3.136 0.247,0 0.847,0.247 1.906,0.73999 0.918,0.423 1.519,0.775 1.766,1.09201 0.388,0.38799 0.565,1.057 0.565,1.97299 0,1.409 -0.424,2.713 -1.236,3.87601 -0.918,1.30299 -2.048,1.97299 -3.46,1.97299 -0.28301,0 -0.812,-0.10601 -1.589,-0.31801 l 0,0.705 z m 5.19,-6.024 c 0,-1.692 -0.565,-2.537 -1.659,-2.537 -1.059,0 -1.907,0.81 -2.578,2.431 -0.459,1.127 -0.741,2.396 -0.847,3.734 0.10601,0.071 0.31801,0.35299 0.706,0.881 0.212,0.28201 0.6,0.423 1.095,0.423 1.024,0 1.836,-0.599 2.506,-1.797 0.53,-0.986 0.777,-2.043 0.777,-3.135 l 0,0 z"
       id="path3393"
       inkscape:connector-curvature="0" />
    <path
       style="fill:#000000;fill-opacity:1;fill-rule:nonzero;stroke:none"
       d="m 438.66723,575.9077 c 0,-0.88 0.10601,-2.36 0.283,-4.439 0.0351,-0.387 0.07,-0.986 0.10602,-1.761 0.07,-0.494 0.388,-0.74 0.882,-0.74 0.918,0 1.377,0.458 1.377,1.339 0,0 -0.0351,0.14 -0.14099,0.458 -0.388,1.268 -0.6,3.17 -0.6,5.637 0,2.536 0.565,3.805 1.695,3.805 1.094,0 1.906,-1.551 2.4,-4.581 0.283,-1.832 0.459,-3.805 0.459,-5.989 0,-0.669 0.283,-1.022 0.883,-1.022 0.31801,0 0.636,0.10602 0.918,0.31801 0.31801,0.21101 0.494,0.458 0.494,0.775 0,0.739 -0.14099,1.902 -0.35298,3.417 -0.24701,1.55 -0.35302,2.678 -0.35302,3.453 0,1.656 0.10601,2.677 0.31801,2.994 0.10601,0.14099 0.28201,0.212 0.494,0.212 0.212,0 0.495,-0.14099 0.777,-0.388 l 0.0351,0 c 0.17698,0.176 0.283,0.31698 0.283,0.458 0,0.17599 -0.14099,0.31702 -0.35298,0.423 -0.24701,0.14098 -0.459,0.211 -0.63601,0.211 -0.74099,0 -1.306,-0.31698 -1.73,-0.951 -0.21199,-0.35199 -0.494,-0.986 -0.741,-1.902 -0.14098,0.845 -0.495,1.585 -1.13,2.254 -0.671,0.705 -1.412,1.057 -2.26,1.057 -1.129,0 -1.977,-0.599 -2.506,-1.761 -0.424,-0.846 -0.601,-1.938 -0.601,-3.277 l 0,0 z"
       id="path3395"
       inkscape:connector-curvature="0" />
    <path
       style="fill:#000000;fill-opacity:1;fill-rule:nonzero;stroke:none"
       d="m 428.07623,561.4627 -1.448,1.057 -0.212,-1.55 c 0.24701,-0.0351 0.53,0 0.848,0.071 0.31698,0.10499 0.564,0.24601 0.812,0.422 l 0,0 z m 0.988,-0.422 -0.0351,-0.28201 -0.636,0.458 -0.24701,-0.176 -1.235,-0.881 c -0.24799,-0.17599 -0.459,-0.388 -0.565,-0.634 -0.036,-0.10601 -0.10601,-0.28201 -0.21199,-0.634 l -0.24701,0.0351 0.529,3.77 -0.953,0.704 0.0351,0.247 0.954,-0.67 0.28201,1.903 c -0.10601,-0.071 -0.21199,-0.10598 -0.35298,-0.10598 -0.14099,0 -0.31801,0 -0.494,0.0351 -0.17699,0.036 -0.389,0.10602 -0.601,0.17699 -0.211,0.10499 -0.388,0.24601 -0.564,0.387 -0.17699,0.14099 -0.31801,0.31699 -0.424,0.458 -0.071,0.17599 -0.10598,0.31698 -0.10598,0.493 0.0351,0.17699 0.17599,0.31698 0.388,0.423 0.21199,0.10602 0.424,0.14099 0.706,0.10602 0.459,-0.071 0.883,-0.24701 1.236,-0.52901 0.17698,-0.17599 0.35302,-0.31698 0.424,-0.493 0.10601,-0.14099 0.10601,-0.31698 0.10601,-0.493 l -0.38899,-2.537 1.589,-1.162 c 0.283,0.28099 0.459,0.599 0.494,0.916 0.036,0.31699 0.036,0.669 -0.10499,1.092 -0.036,0.176 -0.14202,0.458 -0.28301,0.845 l 0.14099,-0.0351 c 0.212,-0.31699 0.35299,-0.634 0.424,-0.951 0.14099,-0.423 0.176,-0.81 0.10602,-1.198 0,-0.14099 -0.071,-0.28201 -0.14099,-0.458 -0.071,-0.14099 -0.17699,-0.28201 -0.31801,-0.423 l 0.49399,-0.387 z"
       id="path3397"
       inkscape:connector-curvature="0" />
    <path
       style="fill:#000000;fill-opacity:1;fill-rule:nonzero;stroke:none"
       d="m 349.41422,504.7757 c 0,0.071 -0.14201,0.916 -0.459,2.537 -0.31801,1.621 -0.459,3.241 -0.459,4.827 0,2.36 0.35299,3.523 1.094,3.488 0.17699,-0.071 0.424,-0.14099 0.742,-0.28201 l 0.28201,0.211 0,0.14099 c 0,0.211 -0.14098,0.423 -0.459,0.599 -0.247,0.14099 -0.494,0.211 -0.706,0.211 -1.165,0 -2.013,-1.057 -2.577,-3.171 -0.495,0.811 -0.989,1.621 -1.483,2.467 -0.63599,0.916 -1.413,1.374 -2.33,1.374 -1.201,0 -2.154,-0.705 -2.89599,-2.185 -0.63501,-1.197 -0.91801,-2.501 -0.91801,-3.805 0,-0.24601 0,-0.599 0.071,-1.021 0.14099,-1.374 0.63601,-2.925 1.51801,-4.651 1.05899,-2.114 2.083,-3.135 3.17799,-3.171 -0.071,0 1.024,0.599 3.24801,1.797 0.35298,-0.28201 0.635,-0.387 0.84699,-0.387 0.28301,0 0.565,0.07 0.848,0.28099 0.31699,0.21199 0.459,0.494 0.459,0.74 l 0,0 z m -2.507,1.48 c 0,-0.564 -0.14099,-1.057 -0.459,-1.444 -0.31801,-0.388 -0.777,-0.599 -1.306,-0.599 -1.166,0 -2.154,1.127 -2.931,3.311 -0.635,1.797 -0.918,3.418 -0.918,4.897 0,2.713 0.706,4.087 2.154,4.087 1.2,0 2.083,-1.444 2.754,-4.368 0.494,-2.079 0.706,-4.052 0.706,-5.884 l 0,0 z"
       id="path3399"
       inkscape:connector-curvature="0" />
    <path
       style="fill:#000000;fill-opacity:1;fill-rule:nonzero;stroke:none"
       d="m 352.02622,516.1907 c 0,0.212 0,0.529 0,0.951 -0.0351,0.071 -0.14098,0.17699 -0.21199,0.28201 l -0.28201,0.14099 c -0.14099,0 -0.28202,-0.14099 -0.424,-0.35199 -0.14099,-0.352 -0.176,-0.669 -0.176,-0.916 0,-1.022 0.14099,-2.22 0.388,-3.594 0.247,-1.198 0.494,-2.36 0.742,-3.558 0.0351,-0.0351 0.14099,-0.423 0.31699,-1.198 0.14201,-0.458 0.21199,-0.845 0.21199,-1.163 0,-0.21101 -0.0351,-0.528 -0.10598,-0.951 -0.07,-0.387 -0.10601,-0.704 -0.10601,-0.951 0,-2.325 0.35298,-3.488 1.095,-3.488 0.247,0 0.459,0.14099 0.6,0.388 0.17698,0.24601 0.247,0.493 0.247,0.739 0,0.247 -0.07,0.635 -0.176,1.093 -0.14201,0.493 -0.17698,0.845 -0.17698,1.092 0,0.634 0.21199,0.951 0.636,0.951 0.388,0 0.776,-0.14099 1.094,-0.493 0.35298,-0.35199 0.6,-0.529 0.777,-0.529 0.28201,0 0.6,0.10601 0.953,0.388 0.35302,0.28201 0.53,0.564 0.53,0.845 0,0.17699 -0.212,0.74 -0.601,1.692 -0.564,1.338 -0.882,3.135 -0.917,5.39 0,0.493 0.07,1.022 0.17599,1.656 0.212,0.81 0.459,1.233 0.777,1.233 0.28201,0 0.565,-0.176 0.84701,-0.564 l 0.17698,0 0.10602,0.071 0.10601,0.211 0,0.10602 c -0.38899,0.74 -0.84799,1.09199 -1.377,1.09199 -0.989,0 -1.695,-0.70499 -2.154,-2.079 -0.31801,-0.95099 -0.459,-2.11399 -0.459,-3.41699 0,-1.30401 0.212,-2.92401 0.67101,-4.862 l -1.836,0.423 c -0.989,4.40399 -1.48301,7.539 -1.448,9.371 l 0,0 z"
       id="path3401"
       inkscape:connector-curvature="0" />
    <path
       style="fill:#000000;fill-opacity:1;fill-rule:nonzero;stroke:none"
       d="m 372.11522,504.0007 c 1.20101,0 1.801,2.396 1.801,7.223 0,0.387 0,0.951 -0.0351,1.726 0,0.775 -0.036,1.374 -0.036,1.762 0,0.704 0.424,1.197 1.236,1.479 l 0.0351,0.176 -0.0351,0.14098 -0.14099,0.176 c -0.14099,0.036 -0.35299,0.071 -0.636,0.071 -0.812,0 -1.482,-0.493 -1.977,-1.48 -0.388,-0.81 -0.6,-1.656 -0.565,-2.572 l 0.036,-6.2 c -0.036,-0.247 -0.10602,-0.423 -0.247,-0.564 l -0.17699,-0.0351 -0.17699,0.0351 -0.176,0.211 c -0.388,0.705 -0.706,1.72701 -0.953,3.065 -0.10601,0.599 -0.247,1.51501 -0.459,2.74801 -0.17699,0.88099 -0.31801,1.79699 -0.459,2.67799 -0.31801,1.409 -0.742,2.114 -1.271,2.114 -0.6,0 -1.024,-0.493 -1.236,-1.55 -0.10601,-0.564 -0.14099,-1.339 -0.10601,-2.361 0,-0.24601 0,-0.916 0.0351,-1.973 0.036,-0.81 0.036,-1.444 0.036,-1.973 0,-1.832 -0.283,-2.853 -0.84799,-3.03 -0.60001,0.10602 -1.094,1.128 -1.44701,3.136 -0.283,1.832 -0.59999,3.664 -0.88299,5.496 -0.388,1.938 -0.98801,2.889 -1.765,2.889 -0.989,0 -1.51801,-1.163 -1.51801,-3.488 0,-1.127 0.10602,-2.783 0.35302,-5.003 0.212,-2.219 0.31699,-3.875 0.31699,-5.002 0,-0.31801 0.35401,-0.494 1.06,-0.494 0.247,0 0.529,0.10602 0.882,0.28201 0.389,0.212 0.565,0.423 0.565,0.67001 0,0.31698 -0.07,0.73899 -0.212,1.26799 -0.211,0.634 -0.31698,1.057 -0.35298,1.268 -0.494,3.03001 -0.741,5.461 -0.741,7.293 0,0.388 0.10601,0.564 0.28201,0.564 0.036,0 0.10598,-0.247 0.247,-0.70499 0.212,-0.634 0.424,-1.58501 0.707,-2.889 0.6,-4.43901 1.659,-6.65901 3.177,-6.65901 1.342,0 2.013,1.797 2.013,5.356 0,0.31699 -0.036,0.81 -0.071,1.444 -0.0351,0.634 -0.0351,1.127 -0.0351,1.445 0,0.176 0.0351,0.28099 0.14099,0.31699 0.35299,-1.762 0.706,-3.488 1.094,-5.215 0.636,-2.536 1.483,-3.84 2.542,-3.84 l 0,0 z"
       id="path3403"
       inkscape:connector-curvature="0" />
    <path
       style="fill:#000000;fill-opacity:1;fill-rule:nonzero;stroke:none"
       d="m 381.04822,502.5207 c 0.56501,0 1.02401,0.14099 1.377,0.458 0.388,0.28201 0.91801,0.529 1.589,0.705 0.847,0.176 1.51801,1.128 1.90601,2.783 0.283,1.128 0.424,2.396 0.424,3.805 0,1.762 -0.35299,3.347 -1.095,4.686 -0.882,1.656 -2.15301,2.466 -3.77701,2.466 -1.66,0 -2.89599,-0.74 -3.708,-2.29 -0.67,-1.198 -0.98799,-2.713 -0.98799,-4.545 0,-1.55 0.35298,-3.17 1.02399,-4.861 0.84701,-2.15 1.90601,-3.207 3.213,-3.207 l 0.0351,0 z m 4.02501,8.526 c 0.0351,-2.078 -0.28301,-3.84 -0.88301,-5.249 -0.14098,-0.423 -0.28201,-0.669 -0.38799,-0.74 -0.14099,-0.211 -0.389,-0.387 -0.70601,-0.528 -0.42399,-0.17599 -0.706,-0.28201 -0.81199,-0.388 -0.036,0 -0.071,0 -0.14202,0 -0.0351,-0.0351 -0.10602,-0.0351 -0.10602,-0.0351 -1.094,0 -1.941,1.127 -2.506,3.347 -0.424,1.585 -0.636,3.135 -0.636,4.721 0,1.162 0.17699,2.114 0.53,2.889 0.494,1.057 1.2,1.585 2.224,1.585 1.13001,0 2.013,-0.669 2.648,-2.043 0.53,-1.092 0.77701,-2.29 0.77701,-3.559 l 0,0 z"
       id="path3405"
       inkscape:connector-curvature="0" />
    <path
       style="fill:#000000;fill-opacity:1;fill-rule:nonzero;stroke:none"
       d="m 397.96023,516.3317 c 0,0.247 -0.212,0.388 -0.636,0.388 -0.847,0 -1.553,-0.458 -2.083,-1.374 -0.424,-0.775 -0.671,-1.621 -0.671,-2.537 l 0,-6.342 c 0,-0.563 -0.176,-0.81 -0.52901,-0.81 l -0.10601,0 c -0.636,0.211 -1.13,1.374 -1.483,3.418 -0.28301,1.796 -0.53,3.628 -0.777,5.425 -0.35298,1.903 -0.918,2.854 -1.659,2.854 -0.989,0 -1.448,-1.128 -1.448,-3.382 l 0,-0.74 c 0,-1.092 0.14099,-2.678 0.388,-4.792 0.283,-2.149 0.424,-3.734 0.424,-4.791 0,-0.388 0.283,-0.599 0.847,-0.599 0.35401,0 0.636,0.10602 0.918,0.247 0.35298,0.21101 0.495,0.42201 0.495,0.704 0,0.176 -0.071,0.67 -0.212,1.515 -0.21199,0.775 -0.424,1.973 -0.706,3.559 -0.31801,2.113 -0.495,3.875 -0.495,5.284 0.036,0.0351 0.036,0.071 0.036,0.10602 0,0 0,0.0351 0,0.07 l 0.07,0.071 c 0.212,-0.0351 0.495,-0.987 0.812,-2.819 0.424,-2.325 0.812,-3.981 1.166,-5.003 0.67,-1.761 1.44701,-2.677 2.4,-2.677 0.459,0 0.84801,0.176 1.13,0.528 0.31801,0.31702 0.494,0.74 0.53,1.198 0.0351,0.24701 0.07,0.987 0.07,2.22 0.036,1.022 0.071,2.536 0.10602,4.58 0.036,0.564 0.071,1.374 0.21199,2.466 0.10602,0.458 0.31801,0.74 0.636,0.81 0.35299,0.10602 0.529,0.212 0.565,0.31699 l 0,0.10601 z"
       id="path3407"
       inkscape:connector-curvature="0" />
    <path
       style="fill:#000000;fill-opacity:1;fill-rule:nonzero;stroke:none"
       d="m 403.04423,505.2697 c -0.35299,0.704 -0.636,2.008 -0.883,3.945 -0.17699,1.551 -0.28301,2.96 -0.28301,4.193 -0.0351,1.55 0.35401,2.325 1.13,2.325 0.24701,0 0.495,-0.211 0.812,-0.669 l 0.24701,-0.10601 0.21199,0.071 c 0.14202,0.10499 0.212,0.28099 0.212,0.493 0,0.28201 -0.212,0.528 -0.565,0.74 -0.31801,0.21101 -0.635,0.28202 -0.953,0.28202 -2.012,0 -3.036,-1.72701 -3.036,-5.179 0,-0.74001 0.10602,-1.868 0.28201,-3.34701 0.212,-1.48 0.28301,-2.608 0.28301,-3.312 0,-0.599 0.423,-0.916 1.235,-0.916 0.31801,0 0.6,0.176 0.883,0.493 0.28201,0.352 0.424,0.66901 0.424,0.987 l 0,0 z m 0.67,-4.369 c 0,0.387 -0.21101,0.704 -0.6,0.986 -0.388,0.247 -0.777,0.388 -1.165,0.388 -0.918,0 -1.377,-0.388 -1.412,-1.198 0,-0.388 0.14098,-0.705 0.494,-0.986 0.283,-0.247 0.636,-0.35298 1.059,-0.35298 0.35302,0 0.671,0.10601 1.024,0.31698 0.389,0.247 0.6,0.529 0.6,0.846 l 0,0 z"
       id="path3409"
       inkscape:connector-curvature="0" />
    <path
       style="fill:#000000;fill-opacity:1;fill-rule:nonzero;stroke:none"
       d="m 407.17423,512.9497 c 0,0.986 0.17699,1.832 0.601,2.572 0.494,0.881 1.2,1.303 2.118,1.303 0.918,0 1.659,-0.31698 2.26,-0.951 0.564,-0.634 0.847,-1.444 0.812,-2.396 0.07,-0.07 0.17599,-0.14099 0.35298,-0.24601 l 0.28201,0.10499 c 0.17699,0.071 0.24701,0.31801 0.24701,0.705 0,0.916 -0.459,1.726 -1.341,2.431 -0.848,0.599 -1.73,0.91599 -2.719,0.91599 -1.624,0 -2.86,-0.73999 -3.707,-2.29 -0.671,-1.198 -0.989,-2.71299 -0.989,-4.51 0,-1.37399 0.35298,-2.95899 1.06,-4.756 0.882,-2.11399 1.906,-3.20599 3.106,-3.20599 0.21199,0 0.848,0.247 1.872,0.73999 0.953,0.45801 1.553,0.846 1.8,1.12701 0.389,0.423 0.565,1.12799 0.565,2.044 0,1.48 -0.423,2.78299 -1.236,3.981 -0.917,1.374 -2.083,2.043 -3.495,2.043 -0.28201,0 -0.812,-0.10499 -1.589,-0.352 l 0,0.74001 z m 5.226,-6.201 c 0,-1.726 -0.565,-2.607 -1.695,-2.607 -1.059,0 -1.907,0.846 -2.577,2.502 -0.459,1.162 -0.777,2.466 -0.848,3.84 0.071,0.07 0.31801,0.387 0.706,0.916 0.21199,0.28201 0.601,0.458 1.095,0.458 1.024,0 1.871,-0.634 2.507,-1.867 0.565,-1.022 0.812,-2.114 0.812,-3.242 l 0,0 z"
       id="path3411"
       inkscape:connector-curvature="0" />
    <path
       style="fill:#000000;fill-opacity:1;fill-rule:nonzero;stroke:none"
       d="m 336.45622,499.9497 c 0.071,0.24601 0.071,0.528 0.036,0.845 -0.071,0.31699 -0.14201,0.529 -0.24799,0.634 -0.07,0.071 -0.67,0 -1.835,-0.17599 -0.707,-0.10602 -1.413,-0.21101 -2.084,-0.31702 -1.165,-0.10598 -2.43601,-0.10598 -3.77701,0.0351 -2.048,0.176 -3.84899,0.599 -5.36699,1.233 -0.388,0.17699 -0.98801,0.423 -1.765,0.811 -0.28301,0.176 -0.53,0.352 -0.777,0.528 -0.31802,0.10602 -0.52901,-0.14099 -0.635,-0.704 -0.212,-1.057 0.0351,-1.903 0.706,-2.502 0.17599,-0.17599 0.388,-0.28201 0.706,-0.31698 0.21199,-0.07 0.459,-0.10602 0.671,-0.10602 2.11799,-0.70399 5.04799,-1.057 8.75599,-1.16199 0.882,0.07 1.73001,0.07 2.57701,0.10498 0.989,0.036 1.836,-0.07 2.507,-0.31698 0.21199,0.14099 0.38799,0.635 0.529,1.41 l 0,0 z"
       id="path3413"
       inkscape:connector-curvature="0" />
    <path
       style="fill:#000000;fill-opacity:1;fill-rule:nonzero;stroke:none"
       d="m 318.52122,516.3317 c 0,-0.0351 0,-0.07 0,-0.14099 0,-0.0351 0.0351,-0.07 0.0351,-0.10499 1.801,-2.114 3.142,-5.391 3.99,-9.83 0.635,-3.523 0.918,-6.941 0.776,-10.358 -0.07,-1.938 -0.459,-4.052 -1.129,-6.377 -0.777,-2.748 -1.73,-4.509 -2.825,-5.285 -0.529,-0.387 -0.777,-0.598 -0.777,-0.634 -0.0351,-0.35199 0.071,-0.563 0.283,-0.599 1.024,-0.24601 2.33,1.233 3.884,4.404 1.694,3.488 2.647,7.011 2.859,10.57 0,0 0.036,0.352 0.071,1.057 0.212,5.425 -1.059,10.992 -3.848,16.734 -0.565,1.234 -1.06,1.868 -1.483,1.973 -0.459,0.071 -0.883,0 -1.236,-0.31698 -0.388,-0.31699 -0.6,-0.669 -0.6,-1.092 l 0,0 z"
       id="path3415"
       inkscape:connector-curvature="0" />
    <path
       style="fill:#000000;fill-opacity:1;fill-rule:nonzero;stroke:none"
       d="m 318.38022,483.6727 c 0,0.0351 0,0.07 0.0351,0.10499 0,0.071 0,0.10601 0,0.14099 1.836,2.11399 3.177,5.391 3.989,9.83 0.671,3.488 0.918,6.93999 0.777,10.358 -0.07,1.93799 -0.423,4.051 -1.094,6.377 -0.812,2.748 -1.766,4.509 -2.825,5.284 -0.529,0.35298 -0.812,0.56399 -0.812,0.63499 0,0.352 0.071,0.52801 0.283,0.599 1.059,0.21101 2.33,-1.23399 3.883,-4.40399 1.695,-3.488 2.684,-7.011 2.89501,-10.605 0,0 0,-0.31699 0.036,-1.022 0.21199,-5.42501 -1.05901,-10.99201 -3.81301,-16.77001 -0.565,-1.19799 -1.06,-1.83199 -1.483,-1.93799 -0.459,-0.10499 -0.883,0 -1.271,0.31801 -0.389,0.28098 -0.565,0.669 -0.6,1.092 l 0,0 z"
       id="path3417"
       inkscape:connector-curvature="0" />
    <path
       style="fill:#000000;fill-opacity:1;fill-rule:nonzero;stroke:none"
       d="m 335.22122,481.7697 c 0.31702,-0.0351 0.67,0 1.059,0.14099 0.388,0.17599 0.635,0.388 0.776,0.634 0.036,0.14099 -0.10499,1.48 -0.423,3.981 -0.21199,1.515 -0.424,3.03 -0.636,4.545 -0.28201,2.502 -0.388,5.25 -0.388,8.209 0.0351,4.58 0.35299,8.561 0.989,12.014 0.14099,0.881 0.423,2.22 0.812,4.016 0.21101,0.564 0.388,1.163 0.564,1.727 0.10602,0.704 -0.211,1.127 -0.953,1.303 -1.341,0.24701 -2.365,-0.387 -3.036,-1.973 -0.17698,-0.422 -0.283,-0.951 -0.31801,-1.585 -0.0351,-0.493 -0.0351,-1.022 -0.071,-1.55 -0.59999,-4.756 -0.74099,-11.204 -0.458,-19.377 0.14099,-1.832 0.28201,-3.7 0.38801,-5.532 0.17599,-2.219 0.14098,-4.087 -0.10602,-5.602 0.212,-0.422 0.812,-0.739 1.801,-0.951 l 0,0 z"
       id="path3419"
       inkscape:connector-curvature="0" />
    <path
       style="fill:#000000;fill-opacity:1;fill-rule:nonzero;stroke:none"
       d="m 404.59723,496.6727 -1.412,1.057 -0.24701,-1.55 c 0.28201,-0.0351 0.565,-0.0351 0.847,0.07 0.31801,0.10598 0.565,0.247 0.812,0.423 l 0,0 z m 0.989,-0.423 -0.036,-0.28201 -0.635,0.458 -0.212,-0.211 -1.271,-0.845 c -0.247,-0.17699 -0.424,-0.388 -0.565,-0.635 -0.0351,-0.10499 -0.10601,-0.28099 -0.212,-0.634 l -0.247,0.0351 0.53,3.77001 -0.954,0.70499 0.036,0.24601 0.953,-0.669 0.28201,1.903 c -0.10499,-0.071 -0.211,-0.10598 -0.35298,-0.10598 -0.14099,0 -0.31699,0 -0.494,0.0351 -0.176,0.0351 -0.388,0.10598 -0.60001,0.176 -0.21199,0.10601 -0.388,0.247 -0.56499,0.388 -0.17699,0.14099 -0.31802,0.31698 -0.388,0.458 -0.10602,0.17599 -0.14202,0.31698 -0.10602,0.493 0,0.17599 0.14099,0.31698 0.35302,0.423 0.212,0.10498 0.423,0.14098 0.706,0.10498 0.459,-0.07 0.883,-0.24601 1.236,-0.528 0.211,-0.17599 0.35302,-0.31698 0.459,-0.493 0.07,-0.14098 0.10499,-0.31698 0.07,-0.493 l -0.35302,-2.537 1.55401,-1.163 c 0.28201,0.28202 0.459,0.599 0.49399,0.916 0.07,0.31699 0.0351,0.67 -0.071,1.092 -0.07,0.17699 -0.176,0.458 -0.31699,0.846 l 0.176,-0.0351 c 0.17699,-0.31698 0.31801,-0.634 0.388,-0.951 0.14201,-0.423 0.17699,-0.81099 0.10601,-1.19799 0,-0.14099 -0.07,-0.28202 -0.14099,-0.45801 -0.071,-0.14098 -0.17599,-0.28201 -0.31801,-0.423 l 0.495,-0.38799 z"
       id="path3421"
       inkscape:connector-curvature="0" />
  </g>
</svg>
